<?xml version="1.0" standalone="no"?><!DOCTYPE svg PUBLIC "-//W3C//DTD SVG 1.1//EN" "http://www.w3.org/Graphics/SVG/1.1/DTD/svg11.dtd"><svg t="1685360379778" class="icon" viewBox="0 0 1024 1024" version="1.1" xmlns="http://www.w3.org/2000/svg" p-id="12508" xmlns:xlink="http://www.w3.org/1999/xlink" width="32" height="32"><path d="M558.619831 857.916603c-11.193959-5.203981-16.029942-18.491933-10.799961-29.673892 12.717954-27.187901 43.395842-75.631725 107.28161-98.883641 61.469777-22.371919 126.219541-11.427958 162.167411-1.805993 14.921946 3.993985 21.347922 21.647921 12.483955 34.299875-21.351922 30.475889-63.919768 80.483708-125.387545 102.855627-63.887768 23.249916-118.529569 5.859979-145.74547-6.791976z" fill="#54B88B" p-id="12509"></path><path d="M558.619831 857.916603c-11.193959-5.203981-16.029942-18.491933-10.799961-29.673892 12.717954-27.187901 43.395842-75.631725 107.28161-98.883641 61.469777-22.371919 126.219541-11.427958 162.167411-1.805993 14.921946 3.993985 21.347922 21.647921 12.483955 34.299875-21.351922 30.475889-63.919768 80.483708-125.387545 102.855627-63.887768 23.249916-118.529569 5.859979-145.74547-6.791976z" opacity=".1" p-id="12510"></path><path d="M627.911579 830.896702a14.999946 14.999946 0 0 1-5.133981-29.097895l120.041563-43.691841a14.999946 14.999946 0 0 1 10.261963 28.189898l-120.043564 43.691841a14.943946 14.943946 0 0 1-5.125981 0.907997z" opacity=".1" p-id="12511"></path><path d="M465.380169 857.916603c11.193959-5.203981 16.029942-18.491933 10.799961-29.673892-12.717954-27.187901-43.395842-75.631725-107.28161-98.883641-61.469777-22.371919-126.219541-11.427958-162.167411-1.805993-14.921946 3.993985-21.347922 21.647921-12.483955 34.299875 21.351922 30.475889 63.919768 80.483708 125.387545 102.855627 63.887768 23.249916 118.529569 5.859979 145.74547-6.791976z" fill="#54B88B" p-id="12512"></path><path d="M465.380169 857.916603c11.193959-5.203981 16.029942-18.491933 10.799961-29.673892-12.717954-27.187901-43.395842-75.631725-107.28161-98.883641-61.469777-22.371919-126.219541-11.427958-162.167411-1.805993-14.921946 3.993985-21.347922 21.647921-12.483955 34.299875 21.351922 30.475889 63.919768 80.483708 125.387545 102.855627 63.887768 23.249916 118.529569 5.859979 145.74547-6.791976z" opacity=".1" p-id="12513"></path><path d="M396.088421 830.896702a14.923946 14.923946 0 0 1-5.127981-0.907997l-120.041564-43.691841a14.999946 14.999946 0 0 1-8.963968-19.225931 14.993946 14.993946 0 0 1 19.225931-8.963967l120.041563 43.691841a14.999946 14.999946 0 0 1-5.133981 29.097895z" opacity=".1" p-id="12514"></path><path d="M567.253799 458.900053h-110.509598v509.846148C456.746201 999.26209 481.484111 1024 512 1024c30.515889 0 55.253799-24.73791 55.253799-55.253799V458.900053z" fill="#54B88B" p-id="12515"></path><path d="M456.746201 458.900053v256.993066C488.672085 700.739174 512 668.443292 512 628.749436c0 39.695856 23.327915 71.991738 55.253799 87.145683V458.900053h-110.507598z" opacity=".1" p-id="12516"></path><path d="M833.772831 195.931008c-26.289904-63.469769-108.639605-79.84971-157.217429-31.271886L512 329.212524h232.717155c68.69775 0 115.345581-69.811746 89.055676-133.281516z" fill="#FFA6BB" p-id="12517"></path><path d="M512 96.497369v232.717155l164.555402-164.555402c48.577824-48.577824 32.195883-130.927524-31.271886-157.217429C581.813746-18.848212 512 27.799619 512 96.497369z" fill="#F985AC" p-id="12518"></path><path d="M512 329.212524z" fill="#7AC8E9" p-id="12519"></path><path d="M347.444598 164.659122L512 329.212524V96.497369c0-68.69775-69.813746-115.345581-133.281516-89.055676-63.469769 26.289904-79.84971 108.639605-31.273886 157.217429z" fill="#FFA6BB" p-id="12520"></path><path d="M512 329.212524z" fill="#7AC8E9" p-id="12521"></path><path d="M744.717155 329.212524H512l164.555402 164.555402c48.577824 48.577824 130.927524 32.195883 157.217429-31.271886 26.289904-63.469769-20.357926-133.283516-89.055676-133.283516z" fill="#F985AC" p-id="12522"></path><path d="M645.283516 650.985355c63.469769-26.289904 79.84971-108.639605 31.271886-157.217429L512 329.212524v232.717155c0 68.69775 69.813746 115.345581 133.283516 89.055676z" fill="#FFA6BB" p-id="12523"></path><path d="M378.718484 650.985355C442.186254 677.27526 512 630.627429 512 561.929679V329.212524l-164.555402 164.555402c-48.575824 48.577824-32.195883 130.927524 31.273886 157.217429z" fill="#F985AC" p-id="12524"></path><path d="M347.444598 493.767926L512 329.212524H279.284845c-68.69775 0-115.345581 69.813746-89.055676 133.281516 26.287905 63.471769 108.639605 79.85171 157.215429 31.273886z" fill="#FFA6BB" p-id="12525"></path><path d="M190.227169 195.931008c-26.289904 63.467769 20.357926 133.281516 89.055676 133.281516H512l-164.555402-164.555402c-48.575824-48.575824-130.927524-32.195883-157.217429 31.273886z" fill="#F985AC" p-id="12526"></path><path d="M512 329.202524m-177.739354 0a177.739354 177.739354 0 1 0 355.478708 0 177.739354 177.739354 0 1 0-355.478708 0Z" fill="#FBDD56" p-id="12527"></path><path d="M353.256577 358.142419a42.783845 34.079876 0 1 0 85.567689 0 42.783845 34.079876 0 1 0-85.567689 0Z" fill="#FF6E6E" p-id="12528"></path><path d="M585.175734 358.142419a42.783845 34.079876 0 1 0 85.567689 0 42.783845 34.079876 0 1 0-85.567689 0Z" fill="#FF6E6E" p-id="12529"></path><path d="M420.980331 339.158488a14.997946 14.997946 0 0 1-14.999946-14.999946v-15.109945c0-8.28597 6.713976-14.999946 14.999946-14.999945s14.999946 6.713976 14.999945 14.999945v15.109945c0 8.28597-6.713976 14.999946-14.999945 14.999946zM603.019669 339.158488a14.997946 14.997946 0 0 1-14.999945-14.999946v-15.109945c0-8.28597 6.713976-14.999946 14.999945-14.999945s14.999946 6.713976 14.999946 14.999945v15.109945a14.999946 14.999946 0 0 1-14.999946 14.999946zM512 350.760446a46.81583 46.81583 0 0 1-35.303872-16.077942 14.995946 14.995946 0 0 1 1.455995-21.161923 14.995946 14.995946 0 0 1 21.161923 1.453995c3.203988 3.675987 7.827972 5.785979 12.687954 5.785979s9.481966-2.109992 12.687954-5.785979a14.995946 14.995946 0 0 1 21.161923-1.453995 14.999946 14.999946 0 0 1 1.455995 21.161923A46.82983 46.82983 0 0 1 512 350.760446z" fill="#414B58" p-id="12530"></path><path d="M479.500118 154.439159c-82.6457 15.271945-145.249472 87.707681-145.249472 174.775365 0 98.167643 79.581711 177.749354 177.749354 177.749354a177.883354 177.883354 0 0 0 47.057829-6.309977C297.084781 442.830111 399.280409 206.790969 479.500118 154.439159z" opacity=".05" p-id="12531"></path></svg>